<svg width="32" height="32" viewBox="0 0 32 32" fill="none" xmlns="http://www.w3.org/2000/svg">
<g clip-path="url(#clip0_1_975)">
<path d="M16.0001 2.66663C8.64008 2.66663 2.66675 8.63996 2.66675 16C2.66675 23.3599 8.64008 29.3333 16.0001 29.3333C23.3601 29.3333 29.3334 23.3599 29.3334 16C29.3334 8.63996 23.3601 2.66663 16.0001 2.66663ZM16.0001 26.6666C10.1201 26.6666 5.33341 21.8799 5.33341 16C5.33341 10.12 10.1201 5.33329 16.0001 5.33329C21.8801 5.33329 26.6667 10.12 26.6667 16C26.6667 21.8799 21.8801 26.6666 16.0001 26.6666ZM22.1201 10.1066L13.3334 18.8933L9.88008 15.4533L8.00008 17.3333L13.3334 22.6666L24.0001 12L22.1201 10.1066Z" fill="#54BF2A"/>
</g>
<defs>
<clipPath id="clip0_1_975">
<rect width="32" height="32" fill="white"/>
</clipPath>
</defs>
</svg>
