<svg width="42" height="42" viewBox="0 0 42 42" fill="none" xmlns="http://www.w3.org/2000/svg">
<path fill-rule="evenodd" clip-rule="evenodd" d="M26.2062 21.3498C25.1709 22.3963 23.7668 22.9842 22.3027 22.9842H17.9298V25.2997H22.9419V26.9875H17.9298V29.9412H16.2602V26.9875H14.176V25.2997H16.2602V22.9842H14.176V21.2964H16.2602V13.5114H14.176V11.8235H22.3027C23.7668 11.8235 25.1709 12.4115 26.2062 13.458C27.2415 14.5045 27.8231 15.9239 27.8231 17.4039C27.8231 18.8839 27.2415 20.3033 26.2062 21.3498ZM22.3027 13.5114H17.9298V21.2964H22.3027C22.8084 21.2964 23.3091 21.1957 23.7763 21.0001C24.2435 20.8045 24.668 20.5178 25.0256 20.1563C25.3831 19.7949 25.6668 19.3658 25.8603 18.8935C26.0538 18.4212 26.1534 17.9151 26.1534 17.4039C26.1534 16.8927 26.0538 16.3865 25.8603 15.9143C25.6668 15.442 25.3831 15.0129 25.0256 14.6515C24.668 14.29 24.2435 14.0033 23.7763 13.8077C23.3091 13.612 22.8084 13.5114 22.3027 13.5114Z" fill="url(#paint0_linear_1_665)"/>
<path fill-rule="evenodd" clip-rule="evenodd" d="M36.9995 21C36.9995 29.8366 29.8361 37 20.9995 37C12.163 37 4.99951 29.8366 4.99951 21C4.99951 12.1634 12.163 5 20.9995 5C29.8361 5 36.9995 12.1634 36.9995 21ZM34.9995 21C34.9995 28.732 28.7315 35 20.9995 35C13.2675 35 6.99951 28.732 6.99951 21C6.99951 13.268 13.2675 7 20.9995 7C28.7315 7 34.9995 13.268 34.9995 21Z" fill="url(#paint1_linear_1_665)"/>
<defs>
<linearGradient id="paint0_linear_1_665" x1="20.6093" y1="10" x2="43.4659" y2="38.8827" gradientUnits="userSpaceOnUse">
<stop stop-color="#2A5391"/>
<stop offset="1" stop-color="#53BD2C"/>
</linearGradient>
<linearGradient id="paint1_linear_1_665" x1="20.6093" y1="10" x2="43.4659" y2="38.8827" gradientUnits="userSpaceOnUse">
<stop stop-color="#2A5391"/>
<stop offset="1" stop-color="#53BD2C"/>
</linearGradient>
</defs>
</svg>
