<svg width="42" height="42" viewBox="0 0 42 42" fill="none" xmlns="http://www.w3.org/2000/svg">
<path d="M22.9399 5.24859L22.9396 5.24794C22.1549 3.58525 19.8436 3.58257 19.0593 5.24859C19.0592 5.24871 19.0592 5.24883 19.0591 5.24895L15.0106 13.8431C15.0106 13.8432 15.0105 13.8433 15.0104 13.8434C14.9776 13.9127 14.927 13.9386 14.8931 13.9439C14.893 13.9439 14.8929 13.9439 14.8929 13.9439L5.83993 15.3221C4.02306 15.5982 3.42525 17.8378 4.63557 19.0742L4.63575 19.0744L11.1876 25.7641C11.1877 25.7643 11.1879 25.7644 11.188 25.7645C11.2321 25.8098 11.262 25.888 11.248 25.9745C11.248 25.9746 11.248 25.9747 11.2479 25.9748L9.70102 35.4212L9.70092 35.4218C9.42306 37.125 11.1748 38.6547 12.8466 37.7338C12.8466 37.7338 12.8466 37.7338 12.8466 37.7338L20.9448 33.2736L20.9464 33.2728C20.9655 33.2622 20.9834 33.2583 20.9996 33.2583C21.0158 33.2583 21.0337 33.2622 21.0528 33.2728L21.0544 33.2736L29.1521 37.7335C30.8271 38.6573 32.5758 37.1229 32.2983 35.4218L32.2982 35.4212L30.7512 25.9748C30.7512 25.9747 30.7512 25.9745 30.7512 25.9744C30.7372 25.8877 30.7673 25.8094 30.8115 25.7641L37.3634 19.0744L37.3636 19.0742C38.5739 17.8378 37.9761 15.5982 36.1593 15.3221L27.1063 13.9439C27.1063 13.9439 27.1062 13.9439 27.1061 13.9439C27.0723 13.9386 27.0216 13.9127 26.9887 13.8435C26.9887 13.8433 26.9886 13.8432 26.9886 13.8431L22.9399 5.24859Z" stroke="url(#paint0_linear_1_654)" stroke-width="2" stroke-miterlimit="10" stroke-linecap="round" stroke-linejoin="round"/>
<defs>
<linearGradient id="paint0_linear_1_654" x1="5" y1="16" x2="37" y2="37" gradientUnits="userSpaceOnUse">
<stop stop-color="#2A5391"/>
<stop offset="1" stop-color="#53BD2C"/>
</linearGradient>
</defs>
</svg>
